<?xml version="1.0" encoding="UTF-8"?>
<svg xmlns="http://www.w3.org/2000/svg" xmlns:xlink="http://www.w3.org/1999/xlink" width="440.32256pt" height="76.15341pt" viewBox="0 0 440.32256 76.15341" version="1.1">
<g id="surface1">
<path style=" stroke:none;fill-rule:evenodd;fill:rgb(45.81604%,40.206909%,23.628235%);fill-opacity:1;" d="M 36.769531 72.757812 C 36.183594 70.675781 35.519531 67.589844 35.433594 65.921875 C 29.347656 67.253906 15.257812 67.253906 9.421875 66.339844 C 9.003906 57.667969 8.753906 49.664062 8.753906 41.324219 C 11.921875 40.90625 20.59375 40.242188 24.597656 41.574219 L 24.511719 34.902344 C 20.761719 35.988281 12.007812 36.152344 8.753906 35.320312 C 8.503906 28.652344 8.835938 21.0625 9.253906 14.476562 C 17.339844 13.726562 25.597656 13.890625 33.601562 15.476562 C 34.183594 13.808594 35.101562 10.558594 35.519531 8.304688 C 27.679688 9.390625 10.421875 8.640625 2.667969 8.222656 C 3.667969 21.0625 3.667969 54.25 3 72.34375 C 13.421875 71.925781 26.347656 72.089844 36.769531 72.757812 "/>
<path style=" stroke:none;fill-rule:evenodd;fill:rgb(45.81604%,40.206909%,23.628235%);fill-opacity:1;" d="M 91.457031 41.40625 C 91.457031 29.734375 79.867188 20.8125 68.859375 20.8125 C 57.6875 20.8125 46.433594 29.734375 46.433594 41.40625 C 46.433594 53.75 55.605469 64.253906 68.277344 64.253906 C 82.035156 64.253906 91.457031 55.167969 91.457031 41.40625 M 85.703125 42.324219 C 85.703125 50.246094 78.28125 59 70.113281 59 C 60.105469 59 52.269531 51.746094 52.269531 41.660156 C 52.269531 33.738281 61.191406 25.984375 68.109375 25.984375 C 76.363281 25.984375 85.703125 33.652344 85.703125 42.324219 "/>
<path style=" stroke:none;fill-rule:evenodd;fill:rgb(45.81604%,40.206909%,23.628235%);fill-opacity:1;" d="M 141.726562 64.671875 C 133.386719 62.421875 121.546875 58.167969 112.625 54.164062 C 119.296875 48.746094 125.632812 43.742188 131.71875 39.324219 C 128.46875 37.40625 114.878906 27.484375 111.625 24.648438 C 118.964844 20.230469 129.96875 14.058594 138.476562 10.722656 C 137.140625 9.472656 135.972656 7.390625 134.722656 5.722656 C 127.136719 10.390625 109.875 19.394531 100.535156 24.316406 C 105.207031 26.984375 118.128906 36.574219 122.132812 39.40625 C 117.210938 43.660156 106.457031 51.246094 99.785156 55.5 C 106.789062 57.835938 128.71875 66.089844 138.722656 71.089844 C 139.640625 68.671875 140.390625 66.589844 141.726562 64.671875 "/>
<path style=" stroke:none;fill-rule:evenodd;fill:rgb(13.729858%,12.159729%,12.548828%);fill-opacity:1;" d="M 191.996094 62.574219 C 182.324219 60.15625 171.902344 56.648438 163.316406 53.058594 C 169.316406 48.382812 175.15625 44.210938 182.160156 39.199219 C 177.570312 36.359375 166.816406 29.015625 162.0625 25.425781 C 169.402344 21.167969 179.238281 16.074219 189.246094 12.402344 C 186.078125 9.730469 185.328125 8.3125 183.074219 5.136719 C 174.402344 10.230469 156.894531 19.078125 145.222656 24.839844 C 151.808594 28.347656 162.5625 35.859375 167.566406 39.449219 C 162.144531 43.542969 152.640625 49.96875 144.136719 55.144531 C 154.058594 58.234375 176.070312 66.082031 187.328125 71.589844 C 188.828125 67.832031 189.746094 66 191.996094 62.574219 "/>
<path style=" stroke:none;fill-rule:evenodd;fill:rgb(13.729858%,12.159729%,12.548828%);fill-opacity:1;" d="M 261.515625 59.917969 C 249.007812 42.574219 237.253906 22.0625 228.332031 4.472656 C 218.074219 28.066406 205.984375 52.164062 193.644531 70.757812 C 197.816406 72.089844 200.148438 72.675781 203.902344 74.007812 C 208.320312 62.417969 211.988281 57.082031 215.992188 49.746094 C 223.996094 48.664062 234.667969 48.078125 242.671875 48.078125 C 246.425781 54.082031 250.425781 59.417969 254.34375 66.003906 C 256.929688 63.421875 259.097656 61.835938 261.515625 59.917969 M 238.085938 40.242188 C 232.667969 41.160156 225.664062 41.492188 219.910156 41.742188 C 221.910156 37.074219 225.828125 28.066406 228.582031 22.398438 C 231.667969 27.734375 235.417969 35.320312 238.085938 40.242188 "/>
<path style=" stroke:none;fill-rule:evenodd;fill:rgb(13.729858%,12.159729%,12.548828%);fill-opacity:1;" d="M 332.359375 63.503906 C 329.691406 43.992188 327.777344 24.816406 325.523438 1.386719 C 316.851562 14.144531 309.347656 24.148438 302.679688 32.402344 C 293.339844 23.398438 284.835938 14.144531 275.832031 4.472656 C 273.410156 27.234375 270.078125 49.078125 265.824219 72.175781 C 269.242188 72.425781 272.160156 72.59375 276.164062 74.507812 C 277.582031 54.832031 279.5 38.324219 282.167969 22.398438 C 285.085938 25.566406 301.511719 43.828125 302.679688 45.078125 C 308.597656 37.742188 313.183594 31.652344 318.605469 25.648438 C 321.019531 38.324219 321.9375 50.082031 322.1875 66.503906 C 326.523438 65.171875 329.027344 64.585938 332.359375 63.503906 "/>
<path style=" stroke:none;fill-rule:evenodd;fill:rgb(13.729858%,12.159729%,12.548828%);fill-opacity:1;" d="M 389.714844 41.492188 C 389.714844 28.902344 377.292969 19.730469 365.617188 19.730469 C 353.863281 19.730469 341.6875 28.984375 341.6875 41.492188 C 341.6875 54.25 351.527344 65.339844 365.035156 65.339844 C 379.710938 65.339844 389.714844 55.832031 389.714844 41.492188 M 380.960938 42.324219 C 380.960938 49.414062 374.207031 57.25 366.871094 57.25 C 357.695312 57.25 350.527344 50.746094 350.527344 41.660156 C 350.527344 34.738281 358.699219 27.734375 364.867188 27.734375 C 372.457031 27.734375 380.960938 34.988281 380.960938 42.324219 "/>
<path style=" stroke:none;fill-rule:evenodd;fill:rgb(13.729858%,12.159729%,12.548828%);fill-opacity:1;" d="M 439.386719 10.808594 C 436.054688 9.390625 434.21875 7.472656 431.300781 5.390625 C 427.714844 12.726562 421.960938 19.730469 417.042969 26.398438 C 412.542969 20.3125 406.785156 12.058594 403.703125 6.304688 C 400.53125 9.058594 398.78125 10.390625 395.449219 11.976562 C 400.785156 17.980469 408.371094 28.234375 412.371094 35.320312 C 412.625 47.246094 412.457031 59.085938 411.539062 73.007812 C 415.125 72.425781 418.710938 72.175781 421.960938 71.925781 C 421.042969 58.917969 420.796875 46.328125 421.042969 35.238281 C 425.714844 28.148438 433.886719 17.226562 439.386719 10.808594 "/>
</g>
</svg>
